<?xml version="1.0" encoding="UTF-8"?>
<svg xmlns="http://www.w3.org/2000/svg" width="920" height="380" viewBox="0 0 920 380">
  <rect width="100%" height="100%" fill="#fafafa"/>
  <text x="460" y="18" text-anchor="middle" font-size="14" font-weight="700" fill="#111">Exp02 — Hallucination rate proxy (100 − relaxed EM)</text>
  <text x="226.0" y="42.0" text-anchor="middle" font-size="15" font-weight="600" fill="#1a1a1a">TruthfulQA</text>
    <text x="254.0" y="356.0" text-anchor="middle" font-size="12" fill="#444">Method</text>
    <text transform="translate(26.0,188.0) rotate(-90)" text-anchor="middle" font-size="12" fill="#444">Hallucination Rate (%)</text>
    <line x1="80.0" y1="316.0" x2="428.0" y2="316.0" stroke="#e8e8e8" stroke-width="1"/>
    <text x="72.0" y="320.0" text-anchor="end" font-size="10" fill="#666">0</text>
    <line x1="80.0" y1="252.0" x2="428.0" y2="252.0" stroke="#e8e8e8" stroke-width="1"/>
    <text x="72.0" y="256.0" text-anchor="end" font-size="10" fill="#666">25</text>
    <line x1="80.0" y1="188.0" x2="428.0" y2="188.0" stroke="#e8e8e8" stroke-width="1"/>
    <text x="72.0" y="192.0" text-anchor="end" font-size="10" fill="#666">50</text>
    <line x1="80.0" y1="124.0" x2="428.0" y2="124.0" stroke="#e8e8e8" stroke-width="1"/>
    <text x="72.0" y="128.0" text-anchor="end" font-size="10" fill="#666">75</text>
    <line x1="80.0" y1="60.0" x2="428.0" y2="60.0" stroke="#e8e8e8" stroke-width="1"/>
    <text x="72.0" y="64.0" text-anchor="end" font-size="10" fill="#666">100</text>
    <rect x="84.0" y="60.0" width="43.2" height="256.0" rx="3" fill="#c94c4c" opacity="0.92"/>
    <text x="105.5" y="330.0" text-anchor="middle" font-size="9" fill="#333">LLM</text>
    <text x="105.5" y="56.0" text-anchor="middle" font-size="9" fill="#333">100.0%</text>
    <rect x="153.6" y="60.0" width="43.2" height="256.0" rx="3" fill="#d97b2a" opacity="0.92"/>
    <text x="175.1" y="330.0" text-anchor="middle" font-size="9" fill="#333">RAG</text>
    <text x="175.1" y="56.0" text-anchor="middle" font-size="9" fill="#333">100.0%</text>
    <rect x="223.2" y="60.0" width="43.2" height="256.0" rx="3" fill="#c9a227" opacity="0.92"/>
    <text x="244.7" y="330.0" text-anchor="middle" font-size="9" fill="#333">GraphRAG</text>
    <text x="244.7" y="56.0" text-anchor="middle" font-size="9" fill="#333">100.0%</text>
    <rect x="292.8" y="60.0" width="43.2" height="256.0" rx="3" fill="#2a8f9d" opacity="0.92"/>
    <text x="314.3" y="330.0" text-anchor="middle" font-size="9" fill="#333">KV Prefix</text>
    <text x="314.3" y="56.0" text-anchor="middle" font-size="9" fill="#333">100.0%</text>
    <rect x="362.4" y="60.0" width="43.2" height="256.0" rx="3" fill="#3d6ab5" opacity="0.92"/>
    <text x="383.9" y="330.0" text-anchor="middle" font-size="9" fill="#333">KVI</text>
    <text x="383.9" y="56.0" text-anchor="middle" font-size="9" fill="#333">100.0%</text>
  <text x="678.0" y="42.0" text-anchor="middle" font-size="15" font-weight="600" fill="#1a1a1a">FEVER</text>
    <text x="706.0" y="356.0" text-anchor="middle" font-size="12" fill="#444">Method</text>
    <text transform="translate(478.0,188.0) rotate(-90)" text-anchor="middle" font-size="12" fill="#444">Hallucination Rate (%)</text>
    <line x1="532.0" y1="316.0" x2="880.0" y2="316.0" stroke="#e8e8e8" stroke-width="1"/>
    <text x="524.0" y="320.0" text-anchor="end" font-size="10" fill="#666">0</text>
    <line x1="532.0" y1="252.0" x2="880.0" y2="252.0" stroke="#e8e8e8" stroke-width="1"/>
    <text x="524.0" y="256.0" text-anchor="end" font-size="10" fill="#666">25</text>
    <line x1="532.0" y1="188.0" x2="880.0" y2="188.0" stroke="#e8e8e8" stroke-width="1"/>
    <text x="524.0" y="192.0" text-anchor="end" font-size="10" fill="#666">50</text>
    <line x1="532.0" y1="124.0" x2="880.0" y2="124.0" stroke="#e8e8e8" stroke-width="1"/>
    <text x="524.0" y="128.0" text-anchor="end" font-size="10" fill="#666">75</text>
    <line x1="532.0" y1="60.0" x2="880.0" y2="60.0" stroke="#e8e8e8" stroke-width="1"/>
    <text x="524.0" y="64.0" text-anchor="end" font-size="10" fill="#666">100</text>
    <rect x="536.0" y="60.0" width="43.2" height="256.0" rx="3" fill="#c94c4c" opacity="0.92"/>
    <text x="557.5" y="330.0" text-anchor="middle" font-size="9" fill="#333">LLM</text>
    <text x="557.5" y="56.0" text-anchor="middle" font-size="9" fill="#333">100.0%</text>
    <rect x="605.6" y="316.0" width="43.2" height="0.0" rx="3" fill="#d97b2a" opacity="0.92"/>
    <text x="627.1" y="330.0" text-anchor="middle" font-size="9" fill="#333">RAG</text>
    <text x="627.1" y="312.0" text-anchor="middle" font-size="9" fill="#333">0.0%</text>
    <rect x="675.2" y="213.6" width="43.2" height="102.4" rx="3" fill="#c9a227" opacity="0.92"/>
    <text x="696.7" y="330.0" text-anchor="middle" font-size="9" fill="#333">GraphRAG</text>
    <text x="696.7" y="209.6" text-anchor="middle" font-size="9" fill="#333">40.0%</text>
    <rect x="744.8" y="213.6" width="43.2" height="102.4" rx="3" fill="#2a8f9d" opacity="0.92"/>
    <text x="766.3" y="330.0" text-anchor="middle" font-size="9" fill="#333">KV Prefix</text>
    <text x="766.3" y="209.6" text-anchor="middle" font-size="9" fill="#333">40.0%</text>
    <rect x="814.4" y="111.2" width="43.2" height="204.8" rx="3" fill="#3d6ab5" opacity="0.92"/>
    <text x="835.9" y="330.0" text-anchor="middle" font-size="9" fill="#333">KVI</text>
    <text x="835.9" y="107.2" text-anchor="middle" font-size="9" fill="#333">80.0%</text>
</svg>