<?xml version="1.0" encoding="UTF-8"?>
<svg xmlns="http://www.w3.org/2000/svg" width="1320" height="390" viewBox="0 0 1320 390">
  <rect width="100%" height="100%" fill="#ffffff"/>
  <text x="660" y="18" text-anchor="middle" font-size="14" font-weight="700">Unified hallucination rate (proxy, %)</text>
  <text x="217.0" y="42.0" text-anchor="middle" font-size="13" font-weight="600">TruthfulQA (MC1 proxy -> Hallucination Rate)</text>
  <text transform="translate(22.0,199.0) rotate(-90)" text-anchor="middle" font-size="10">Hallucination Rate (%)</text>
  <line x1="70.0" y1="340.0" x2="414.0" y2="340.0" stroke="#dddddd" stroke-width="1"/>
  <text x="64.0" y="344.0" text-anchor="end" font-size="9">0</text>
  <line x1="70.0" y1="269.5" x2="414.0" y2="269.5" stroke="#dddddd" stroke-width="1"/>
  <text x="64.0" y="273.5" text-anchor="end" font-size="9">25</text>
  <line x1="70.0" y1="199.0" x2="414.0" y2="199.0" stroke="#dddddd" stroke-width="1"/>
  <text x="64.0" y="203.0" text-anchor="end" font-size="9">50</text>
  <line x1="70.0" y1="128.5" x2="414.0" y2="128.5" stroke="#dddddd" stroke-width="1"/>
  <text x="64.0" y="132.5" text-anchor="end" font-size="9">75</text>
  <line x1="70.0" y1="58.0" x2="414.0" y2="58.0" stroke="#dddddd" stroke-width="1"/>
  <text x="64.0" y="62.0" text-anchor="end" font-size="9">100</text>
  <rect x="73.9" y="239.6" width="42.7" height="100.4" fill="#1f77b4" rx="2"/>
  <text x="95.2" y="236.6" text-anchor="middle" font-size="9">35.6</text>
  <text x="95.2" y="353.0" text-anchor="middle" font-size="9">LLM</text>
  <rect x="142.7" y="262.2" width="42.7" height="77.8" fill="#ff7f0e" rx="2"/>
  <text x="164.0" y="259.2" text-anchor="middle" font-size="9">27.6</text>
  <text x="164.0" y="353.0" text-anchor="middle" font-size="9">RAG</text>
  <rect x="211.5" y="296.0" width="42.7" height="44.0" fill="#2ca02c" rx="2"/>
  <text x="232.8" y="293.0" text-anchor="middle" font-size="9">15.6</text>
  <text x="232.8" y="353.0" text-anchor="middle" font-size="9">GraphRAG</text>
  <rect x="280.3" y="331.0" width="42.7" height="9.0" fill="#d62728" rx="2"/>
  <text x="301.6" y="328.0" text-anchor="middle" font-size="9">3.2</text>
  <text x="301.6" y="353.0" text-anchor="middle" font-size="9">KV Prefix</text>
  <rect x="349.1" y="277.4" width="42.7" height="62.6" fill="#9467bd" rx="2"/>
  <text x="370.4" y="274.4" text-anchor="middle" font-size="9">22.2</text>
  <text x="370.4" y="353.0" text-anchor="middle" font-size="9">KVI</text>
  <text x="645.0" y="42.0" text-anchor="middle" font-size="13" font-weight="600">TruthfulQA (MC2 proxy -> Hallucination Rate)</text>
  <text transform="translate(450.0,199.0) rotate(-90)" text-anchor="middle" font-size="10">Hallucination Rate (%)</text>
  <line x1="498.0" y1="340.0" x2="842.0" y2="340.0" stroke="#dddddd" stroke-width="1"/>
  <text x="492.0" y="344.0" text-anchor="end" font-size="9">0</text>
  <line x1="498.0" y1="269.5" x2="842.0" y2="269.5" stroke="#dddddd" stroke-width="1"/>
  <text x="492.0" y="273.5" text-anchor="end" font-size="9">25</text>
  <line x1="498.0" y1="199.0" x2="842.0" y2="199.0" stroke="#dddddd" stroke-width="1"/>
  <text x="492.0" y="203.0" text-anchor="end" font-size="9">50</text>
  <line x1="498.0" y1="128.5" x2="842.0" y2="128.5" stroke="#dddddd" stroke-width="1"/>
  <text x="492.0" y="132.5" text-anchor="end" font-size="9">75</text>
  <line x1="498.0" y1="58.0" x2="842.0" y2="58.0" stroke="#dddddd" stroke-width="1"/>
  <text x="492.0" y="62.0" text-anchor="end" font-size="9">100</text>
  <rect x="501.9" y="162.0" width="42.7" height="178.0" fill="#1f77b4" rx="2"/>
  <text x="523.2" y="159.0" text-anchor="middle" font-size="9">63.1</text>
  <text x="523.2" y="353.0" text-anchor="middle" font-size="9">LLM</text>
  <rect x="570.7" y="167.7" width="42.7" height="172.3" fill="#ff7f0e" rx="2"/>
  <text x="592.0" y="164.7" text-anchor="middle" font-size="9">61.1</text>
  <text x="592.0" y="353.0" text-anchor="middle" font-size="9">RAG</text>
  <rect x="639.5" y="212.3" width="42.7" height="127.7" fill="#2ca02c" rx="2"/>
  <text x="660.8" y="209.3" text-anchor="middle" font-size="9">45.3</text>
  <text x="660.8" y="353.0" text-anchor="middle" font-size="9">GraphRAG</text>
  <rect x="708.3" y="73.5" width="42.7" height="266.5" fill="#d62728" rx="2"/>
  <text x="729.6" y="70.5" text-anchor="middle" font-size="9">94.5</text>
  <text x="729.6" y="353.0" text-anchor="middle" font-size="9">KV Prefix</text>
  <rect x="777.1" y="211.2" width="42.7" height="128.8" fill="#9467bd" rx="2"/>
  <text x="798.4" y="208.2" text-anchor="middle" font-size="9">45.7</text>
  <text x="798.4" y="353.0" text-anchor="middle" font-size="9">KVI</text>
  <text x="1073.0" y="42.0" text-anchor="middle" font-size="13" font-weight="600">FEVER (Label Accuracy -> Hallucination Rate)</text>
  <text transform="translate(878.0,199.0) rotate(-90)" text-anchor="middle" font-size="10">Hallucination Rate (%)</text>
  <line x1="926.0" y1="340.0" x2="1270.0" y2="340.0" stroke="#dddddd" stroke-width="1"/>
  <text x="920.0" y="344.0" text-anchor="end" font-size="9">0</text>
  <line x1="926.0" y1="269.5" x2="1270.0" y2="269.5" stroke="#dddddd" stroke-width="1"/>
  <text x="920.0" y="273.5" text-anchor="end" font-size="9">25</text>
  <line x1="926.0" y1="199.0" x2="1270.0" y2="199.0" stroke="#dddddd" stroke-width="1"/>
  <text x="920.0" y="203.0" text-anchor="end" font-size="9">50</text>
  <line x1="926.0" y1="128.5" x2="1270.0" y2="128.5" stroke="#dddddd" stroke-width="1"/>
  <text x="920.0" y="132.5" text-anchor="end" font-size="9">75</text>
  <line x1="926.0" y1="58.0" x2="1270.0" y2="58.0" stroke="#dddddd" stroke-width="1"/>
  <text x="920.0" y="62.0" text-anchor="end" font-size="9">100</text>
  <rect x="929.9" y="145.1" width="42.7" height="194.9" fill="#1f77b4" rx="2"/>
  <text x="951.2" y="142.1" text-anchor="middle" font-size="9">69.1</text>
  <text x="951.2" y="353.0" text-anchor="middle" font-size="9">LLM</text>
  <rect x="998.7" y="318.9" width="42.7" height="21.1" fill="#ff7f0e" rx="2"/>
  <text x="1020.0" y="315.9" text-anchor="middle" font-size="9">7.5</text>
  <text x="1020.0" y="353.0" text-anchor="middle" font-size="9">RAG</text>
  <rect x="1067.5" y="252.0" width="42.7" height="88.0" fill="#2ca02c" rx="2"/>
  <text x="1088.8" y="249.0" text-anchor="middle" font-size="9">31.2</text>
  <text x="1088.8" y="353.0" text-anchor="middle" font-size="9">GraphRAG</text>
  <rect x="1136.3" y="261.9" width="42.7" height="78.1" fill="#d62728" rx="2"/>
  <text x="1157.6" y="258.9" text-anchor="middle" font-size="9">27.7</text>
  <text x="1157.6" y="353.0" text-anchor="middle" font-size="9">KV Prefix</text>
  <rect x="1205.1" y="309.8" width="42.7" height="30.2" fill="#9467bd" rx="2"/>
  <text x="1226.4" y="306.8" text-anchor="middle" font-size="9">10.7</text>
  <text x="1226.4" y="353.0" text-anchor="middle" font-size="9">KVI</text>
</svg>